<?xml version="1.0" encoding="UTF-8"?>
<svg xmlns="http://www.w3.org/2000/svg" xmlns:xlink="http://www.w3.org/1999/xlink" viewBox="0 0 756.65 722.22">
    <defs>
        <style>
            .cls-1 {
            fill: url(#linear-gradient-20);
            opacity: .5;
            }

            .cls-1, .cls-2, .cls-3, .cls-4, .cls-5, .cls-6, .cls-7, .cls-8, .cls-9, .cls-10, .cls-11, .cls-12, .cls-13, .cls-14, .cls-15, .cls-16, .cls-17, .cls-18, .cls-19, .cls-20, .cls-21, .cls-22, .cls-23, .cls-24 {
            stroke-width: 0px;
            }

            .cls-2 {
            fill: url(#linear-gradient);
            }

            .cls-3 {
            fill: url(#linear-gradient-11);
            }

            .cls-4 {
            fill: url(#linear-gradient-12);
            }

            .cls-5 {
            fill: url(#linear-gradient-13);
            }

            .cls-6 {
            fill: url(#linear-gradient-10);
            }

            .cls-7 {
            fill: url(#linear-gradient-17);
            }

            .cls-8 {
            fill: url(#linear-gradient-16);
            }

            .cls-9 {
            fill: url(#linear-gradient-19);
            }

            .cls-10 {
            fill: url(#linear-gradient-15);
            }

            .cls-11 {
            fill: url(#linear-gradient-18);
            }

            .cls-12 {
            fill: url(#linear-gradient-14);
            }

            .cls-13 {
            fill: url(#linear-gradient-4);
            }

            .cls-14 {
            fill: url(#linear-gradient-2);
            }

            .cls-15 {
            fill: url(#linear-gradient-3);
            }

            .cls-16 {
            fill: url(#linear-gradient-8);
            }

            .cls-17 {
            fill: url(#linear-gradient-9);
            }

            .cls-18 {
            fill: url(#linear-gradient-7);
            }

            .cls-19 {
            fill: url(#linear-gradient-5);
            }

            .cls-20 {
            fill: url(#linear-gradient-6);
            }

            .cls-21 {
            fill: #4f4648;
            }

            .cls-22 {
            fill: #9e0000;
            }

            .cls-23 {
            fill: #737294;
            }

            .cls-24 {
            fill: #ffd200;
            }
        </style>
        <linearGradient id="linear-gradient" x1="231.22" y1="443.81" x2="756.36" y2="341.51" gradientUnits="userSpaceOnUse">
            <stop offset=".72" stop-color="#bd1300"/>
            <stop offset=".75" stop-color="#ca2d00"/>
            <stop offset=".8" stop-color="#dc5200"/>
            <stop offset=".85" stop-color="#eb7000"/>
            <stop offset=".9" stop-color="#f68500"/>
            <stop offset=".95" stop-color="#fc9200"/>
            <stop offset=".99" stop-color="#ff9700"/>
        </linearGradient>
        <linearGradient id="linear-gradient-2" x1="83.74" y1="567.76" x2="522.02" y2="243.82" gradientUnits="userSpaceOnUse">
            <stop offset="0" stop-color="#ba0069"/>
            <stop offset="1" stop-color="#ff0303"/>
        </linearGradient>
        <linearGradient id="linear-gradient-3" x1="20.22" y1="216.74" x2="187.58" y2="155.12" gradientUnits="userSpaceOnUse">
            <stop offset=".22" stop-color="#077300"/>
            <stop offset=".33" stop-color="#279500"/>
            <stop offset=".47" stop-color="#4abb00"/>
            <stop offset=".6" stop-color="#66d800"/>
            <stop offset=".74" stop-color="#7aed00"/>
            <stop offset=".87" stop-color="#86fa00"/>
            <stop offset=".99" stop-color="#8bff00"/>
        </linearGradient>
        <linearGradient id="linear-gradient-4" x1="68.52" y1="536.32" x2="654.14" y2="323.74" gradientUnits="userSpaceOnUse">
            <stop offset=".77" stop-color="#ffb900"/>
            <stop offset=".88" stop-color="#f3e700"/>
            <stop offset=".95" stop-color="#edff00"/>
        </linearGradient>
        <linearGradient id="linear-gradient-5" x1="474.19" y1="52.74" x2="516.88" y2="20.86" gradientUnits="userSpaceOnUse">
            <stop offset="0" stop-color="#594f00"/>
            <stop offset=".22" stop-color="#6d5600"/>
            <stop offset=".7" stop-color="#966500"/>
            <stop offset=".94" stop-color="#a66b00"/>
        </linearGradient>
        <linearGradient id="linear-gradient-6" x1="323.18" y1="654.03" x2="512.01" y2="311.51" gradientUnits="userSpaceOnUse">
            <stop offset=".33" stop-color="#363636"/>
            <stop offset=".54" stop-color="#6d501b"/>
            <stop offset=".72" stop-color="#966307"/>
            <stop offset=".82" stop-color="#a66b00"/>
        </linearGradient>
        <linearGradient id="linear-gradient-7" x1="416.8" y1="480.6" x2="492.03" y2="436.61" gradientTransform="translate(115.93 -89.65) rotate(13.07)" gradientUnits="userSpaceOnUse">
            <stop offset="0" stop-color="#b000b5"/>
            <stop offset=".46" stop-color="#5410db"/>
            <stop offset=".8" stop-color="#171bf5"/>
            <stop offset=".96" stop-color="#0020ff"/>
        </linearGradient>
        <linearGradient id="linear-gradient-8" x1="693.48" y1="258.2" x2="715.6" y2="241.13" gradientUnits="userSpaceOnUse">
            <stop offset=".18" stop-color="#a25200"/>
            <stop offset=".37" stop-color="#ad6a00"/>
            <stop offset=".59" stop-color="#b77f00"/>
            <stop offset=".8" stop-color="#bd8c00"/>
            <stop offset="1" stop-color="#bf9100"/>
        </linearGradient>
        <linearGradient id="linear-gradient-9" x1="637.11" y1="217.48" x2="748.51" y2="166.68" gradientUnits="userSpaceOnUse">
            <stop offset=".24" stop-color="#008b18"/>
            <stop offset=".3" stop-color="#009318"/>
            <stop offset=".74" stop-color="#00cf20"/>
            <stop offset=".96" stop-color="#00e723"/>
        </linearGradient>
        <linearGradient id="linear-gradient-10" x1="542.17" y1="264.72" x2="566.15" y2="254.63" gradientUnits="userSpaceOnUse">
            <stop offset=".16" stop-color="#717a00"/>
            <stop offset=".24" stop-color="#868300"/>
            <stop offset=".39" stop-color="#ac9400"/>
            <stop offset=".55" stop-color="#c9a200"/>
            <stop offset=".7" stop-color="#deac00"/>
            <stop offset=".85" stop-color="#ebb200"/>
            <stop offset=".99" stop-color="#f0b400"/>
        </linearGradient>
        <linearGradient id="linear-gradient-11" x1="319.09" y1="235.08" x2="346.73" y2="220.68" gradientUnits="userSpaceOnUse">
            <stop offset=".28" stop-color="#700039"/>
            <stop offset=".31" stop-color="#740035"/>
            <stop offset=".48" stop-color="#910020"/>
            <stop offset=".66" stop-color="#a60011"/>
            <stop offset=".83" stop-color="#b30008"/>
            <stop offset=".99" stop-color="#b80005"/>
        </linearGradient>
        <linearGradient id="linear-gradient-12" x1="297.44" y1="450.35" x2="372.67" y2="406.36" gradientTransform="translate(-50.27 447.91) rotate(-54.96) scale(.74 .72) skewX(.29)" xlink:href="#linear-gradient-7"/>
        <linearGradient id="linear-gradient-13" x1="98.16" y1="536.22" x2="173.39" y2="492.23" gradientTransform="translate(463.61 955.1) rotate(170.73) scale(.74 .72) skewX(.29)" xlink:href="#linear-gradient-7"/>
        <linearGradient id="linear-gradient-14" x1="161.05" y1="648.65" x2="236.28" y2="604.66" gradientTransform="translate(118.3 893.05) rotate(-140.31) scale(.6 .57) skewX(.58)" xlink:href="#linear-gradient-7"/>
        <linearGradient id="linear-gradient-15" x1="-321.41" y1="882.18" x2="-246.18" y2="838.19" gradientTransform="translate(738.34 1087.09) rotate(128.25) scale(.6 .57) skewX(.58)" xlink:href="#linear-gradient-7"/>
        <linearGradient id="linear-gradient-16" x1="11.03" y1="467.93" x2="86.26" y2="423.94" gradientTransform="translate(723.63 832.65) rotate(128.64) scale(1.15 .85) skewX(2.64)" xlink:href="#linear-gradient-7"/>
        <linearGradient id="linear-gradient-17" x1="208.45" y1="496.14" x2="283.68" y2="452.15" gradientTransform="translate(362.11 1041.69) rotate(-176.43) scale(.7 .81) skewX(-2.07)" xlink:href="#linear-gradient-7"/>
        <linearGradient id="linear-gradient-18" x1="675.37" y1="309.36" x2="697.5" y2="292.29" xlink:href="#linear-gradient-8"/>
        <linearGradient id="linear-gradient-19" x1="583.57" y1="296.28" x2="607.55" y2="286.19" xlink:href="#linear-gradient-10"/>
        <linearGradient id="linear-gradient-20" x1="75.85" y1="330.43" x2="288.07" y2="250.75" gradientUnits="userSpaceOnUse">
            <stop offset=".27" stop-color="#4200d9"/>
            <stop offset=".4" stop-color="#6b3ea3"/>
            <stop offset=".55" stop-color="#99826a"/>
            <stop offset=".69" stop-color="#bdb73c"/>
            <stop offset=".8" stop-color="#d7de1b"/>
            <stop offset=".9" stop-color="#e7f607"/>
            <stop offset=".95" stop-color="#edff00"/>
        </linearGradient>
    </defs>
    <g id="Layer_1" data-name="Layer 1">
        <path class="cls-2" d="m268.82,253.48c-13.61,20.33-59.46,94.28-44.07,192.12,2.93,18.63,19.4,123.36,107.59,175.09,113.9,66.81,298.26,16.38,378.5-104.57,62.57-94.31,67.15-239.53-24.63-319.79-101.65-88.89-299-78.43-417.39,57.15h0Z"/>
        <path class="cls-14" d="m22.56,272.42c-55.64,57.31-7.58,260.51,135.46,347.38,102.79,62.42,253.71,64.22,331.74-12.89,154.26-152.44-54.57-535.98-140.69-529.2-45.32,3.57-39.98,113.91-138.53,164.3-85.7,43.82-149.85-8.89-187.99,30.4h0Z"/>
        <path class="cls-15" d="m15.13,152.95c19.57-23,180.21,25.74,176.62,56.19-2.55,21.65-89.93,49.59-139.46,17.51-29.59-19.16-36.64-53.89-37.09-56.29-1.8-9.57-2.76-14.25-.07-17.41Z"/>
        <path class="cls-13" d="m496.62,78.05c25.1-6.3,258.77,298.18,103.84,514.73C436.56,821.86,31.21,682.16,30.13,657.69c-.96-21.71,315.15,22.42,445.72-153.03,124.02-166.65-1.5-421.03,20.77-426.62h0Z"/>
        <path class="cls-19" d="m503.88.75c14.17,4.92,20.73,34.66,10.03,55.45-8.48,16.48-28.49,28.69-36.78,23.53-14.16-8.82-17.34-53.8,5.02-72.26,1.49-1.23,12.17-10.05,21.74-6.72h0Z"/>
        <path class="cls-20" d="m600.85,604.17c.23,2.7-.08,6.26-2.67,9.44-16.99,20.8-111.62.02-169.3-18.98-186.39-61.41-218.77-180.58-219.08-192.66-.02-.74.06-1.61.75-2.15,8.48-6.7,68.15,69.8,164.81,109.98,101.42,42.15,198.93,25.78,222.79,85.94,1.39,3.51,2.23,6.51,2.7,8.44Z"/>
        <path class="cls-18" d="m493.37,421.5c10.9,17.38-1.62,54.22-20.21,72.31-22.08,21.49-59.94,23.59-70.22,5-10.45-18.89,7.3-59.72,32.38-76.63,17.85-12.03,47.55-17.45,58.05-.69h0Z"/>
        <path class="cls-16" d="m694.24,225.65c-9.55,6.24-1.07,48.37,9.43,53.08,5.83,2.62,10.94-6.9,11.39-7.75,6.14-11.42,2.39-32.32-7.99-41.36-.75-.65-8.2-7-12.84-3.97h.01Z"/>
        <path class="cls-17" d="m750.12,158.01c8.89,27.71-22.68,62.95-51.27,79.47-18.1,10.46-54.14,24.48-65.78,11.39-14.18-15.96,12.92-66.49,46.17-94.09,10.59-8.79,30.24-25.1,49.32-18.92,10.1,3.28,18.4,12.32,21.56,22.15h0Z"/>
        <path class="cls-21" d="m288.31,231.37c35.86,59.49,14.14,135.51-48.18,169.72-62.42,35.03-142.45,15.24-178.51-44.82-33.53-54.87-16.89-126.81,37.42-163.46,61.93-43.31,151.37-25.16,189.28,38.58h0Zm-15.2,8.37c-31.84-52.89-105.94-70-159.67-36.89-50.52,30.32-66.78,96.05-36.33,144.89,30.97,50.92,101.22,69.32,154.96,40.06,53.96-29.44,72.7-97.04,41.06-148.05h0Z"/>
        <path class="cls-6" d="m548.28,234.3c-10.68,4.01-11.59,46.97-2.37,53.86,5.12,3.82,12.18-4.35,12.81-5.08,8.48-9.81,9.38-31.02,1.23-42.11-.59-.8-6.48-8.62-11.66-6.68h-.01Z"/>
        <path class="cls-3" d="m333.41,202.52c-12.41,1.79-22.6,43.71-14.11,52.3,4.71,4.77,14.11-1.82,14.95-2.41,11.28-7.92,16.8-28.52,10.35-41.02-.46-.9-5.16-9.74-11.18-8.87h-.01Z"/>
        <path class="cls-22" d="m192.43,324.27c-.62-12.52-41.41-26.59-50.76-18.93-5.19,4.25.5,14.21,1.01,15.11,6.83,11.97,26.83,19.39,39.87,14.13.94-.38,10.18-4.23,9.88-10.31Z"/>
        <path class="cls-24" d="m91.57,415.86c.39-6.23,11.43-12.26,17.69-8.17,3.82,2.5,5.98,8.84,3.19,13.53-2.99,5.02-9.93,5.24-14.3,3.25-3.18-1.45-6.81-4.88-6.58-8.62Z"/>
        <path class="cls-24" d="m91.57,445.62c.39-6.23,11.43-12.26,17.69-8.17,3.82,2.5,5.98,8.84,3.19,13.53-2.99,5.02-9.93,5.24-14.3,3.25-3.18-1.45-6.81-4.88-6.58-8.62Z"/>
        <path class="cls-24" d="m69.4,465.72c.39-6.23,11.43-12.26,17.69-8.17,3.82,2.5,5.98,8.84,3.19,13.53-2.99,5.02-9.93,5.24-14.3,3.25-3.18-1.45-6.81-4.88-6.58-8.62Z"/>
        <path class="cls-24" d="m39.62,465.72c.39-6.23,11.43-12.26,17.69-8.17,3.82,2.5,5.98,8.84,3.19,13.53-2.99,5.02-9.93,5.24-14.3,3.25-3.18-1.45-6.81-4.88-6.58-8.62Z"/>
        <path class="cls-23" d="m577.32,608.37c-9.82-8.1-11.83-27.75-6.54-31.2,4.47-2.91,15.58,4.79,20.22,14.78,2.51,5.39,4.92,15.29.62,19.09-3.63,3.21-10.34.6-14.3-2.67Z"/>
        <path class="cls-4" d="m332.53,384.49c14.82-2.87,36.22,15.46,43.24,33.01,8.34,20.83-.87,47.35-16.33,49.48-15.71,2.16-38.35-20.81-42.75-42.5-3.13-15.43,1.54-37.23,15.83-39.99h0Z"/>
        <path class="cls-5" d="m286.53,640.3c-12.4-8.6-14.24-36.72-6.59-54,9.08-20.52,34.49-32.46,46.81-22.89,12.53,9.73,11.9,41.98-.54,60.27-8.85,13.02-27.72,24.91-39.68,16.61h0Z"/>
        <path class="cls-12" d="m221.73,549.03c-1.52-11.97,14.16-27.62,28.48-31.91,17-5.09,37.62,4.17,38.52,16.59.91,12.63-18.53,28.92-36,30.82-12.44,1.35-29.54-3.96-31-15.5h0Z"/>
        <path class="cls-10" d="m465.71,683.68c-11.93,1.82-27.97-13.47-32.61-27.67-5.51-16.87,3.22-37.71,15.63-38.92,12.61-1.23,29.37,17.8,31.71,35.22,1.66,12.4-3.22,29.63-14.72,31.38h0Z"/>
        <path class="cls-8" d="m388.59,705.64c-20.53,5.92-44.83-16.55-50.06-39.84-6.21-27.65,12.44-65.47,33.65-70.45,21.56-5.07,46.41,23.65,47.13,53,.52,20.88-10.93,51.59-30.73,57.29h0Z"/>
        <path class="cls-7" d="m202.61,683.28c-9.06-12.34-3.43-43.5,8.02-60.56,13.59-20.26,39.82-27.26,48.55-13.87,8.88,13.61-.07,48.69-16.14,65.72-11.44,12.12-31.7,20.62-40.43,8.71h0Z"/>
        <path class="cls-11" d="m676.13,276.8c-9.55,6.24-1.07,48.37,9.43,53.08,5.83,2.62,10.94-6.9,11.39-7.75,6.14-11.42,2.39-32.32-7.99-41.36-.75-.65-8.2-7-12.84-3.97h.01Z"/>
        <path class="cls-9" d="m589.67,265.86c-10.68,4.01-11.59,46.97-2.37,53.86,5.12,3.82,12.18-4.35,12.81-5.08,8.48-9.81,9.38-31.02,1.23-42.11-.59-.8-6.48-8.62-11.66-6.68h-.01Z"/>
    </g>
    <g id="Layer_2" data-name="Layer 2">
        <ellipse class="cls-1" cx="175.19" cy="293.14" rx="113.34" ry="108.6"/>
    </g>
</svg>